<svg xmlns="http://www.w3.org/2000/svg" viewBox="0 0 20 20.002">
  <defs>
    <style>
      .cls-1 {
        fill: #fff;
      }
    </style>
  </defs>
  <path id="wrench" class="cls-1" d="M19.084,14.59l-6.14-6.139.821-3.063a.655.655,0,0,0-.169-.633L9.032.192A.655.655,0,0,0,8.4.022L4.971.941a.655.655,0,0,0-.294,1.1L8.106,5.466,7.55,7.54,5.476,8.1,2.047,4.667a.655.655,0,0,0-1.1.294L.033,8.389a.655.655,0,0,0,.17.633l4.563,4.563a.655.655,0,0,0,.633.17l3.063-.821,6.14,6.14A3.149,3.149,0,0,0,16.842,20h0a3.17,3.17,0,0,0,2.242-5.412Zm-.927,3.557a1.847,1.847,0,0,1-1.315.545h0a1.847,1.847,0,0,1-1.315-.545L9.12,11.74a.655.655,0,0,0-.633-.17l-3.063.821L1.4,8.363,1.923,6.4,4.817,9.29a.655.655,0,0,0,.633.17l2.8-.751a.655.655,0,0,0,.463-.463l.752-2.805a.655.655,0,0,0-.17-.633L6.406,1.913l1.967-.527L12.4,5.414l-.821,3.063a.655.655,0,0,0,.17.633l6.407,6.407A1.862,1.862,0,0,1,18.157,18.147Z" transform="translate(-0.01)"/>
</svg>
