<svg xmlns="http://www.w3.org/2000/svg" viewBox="0 0 26.188 24.424">
  <defs>
    <style>
      .cls-1 {
        opacity: 0.7;
      }

      .cls-2 {
        fill: #323b61;
      }
    </style>
  </defs>
  <g id="newspaper" class="cls-1" transform="translate(0 -17.245)">
    <g id="Group_10" data-name="Group 10" transform="translate(10.413 23.751)">
      <g id="Group_9" data-name="Group 9" transform="translate(0 0)">
        <path id="Path_8" data-name="Path 8" class="cls-2" d="M211.124,144.4h-6.5a1.038,1.038,0,1,0,0,2.076h6.5a1.038,1.038,0,0,0,0-2.076Z" transform="translate(-203.582 -144.402)"/>
      </g>
    </g>
    <g id="Group_12" data-name="Group 12" transform="translate(10.413 28.767)">
      <g id="Group_11" data-name="Group 11" transform="translate(0 0)">
        <path id="Path_9" data-name="Path 9" class="cls-2" d="M213.614,242.473H204.62a1.038,1.038,0,1,0,0,2.076h8.994a1.038,1.038,0,1,0,0-2.076Z" transform="translate(-203.582 -242.473)"/>
      </g>
    </g>
    <g id="Group_14" data-name="Group 14" transform="translate(0 17.247)">
      <g id="Group_13" data-name="Group 13" transform="translate(0 0)">
        <path id="Path_10" data-name="Path 10" class="cls-2" d="M25.15,17.247H6.78a1.038,1.038,0,0,0-1.038,1.038v9.79H3.909A3.914,3.914,0,0,0,0,31.984v5.777a3.91,3.91,0,0,0,4.429,3.875H21.552A4.641,4.641,0,0,0,26.188,37V18.285A1.038,1.038,0,0,0,25.15,17.247ZM5.743,37.761a1.837,1.837,0,0,1-1.479,1.8H3.909v.035a1.836,1.836,0,0,1-1.834-1.834V31.984a1.836,1.836,0,0,1,1.834-1.834H5.743v7.611ZM24.112,37a2.594,2.594,0,0,1-2.56,2.56H7.379a3.883,3.883,0,0,0,.439-1.8V19.323H24.112V37Z" transform="translate(0 -17.247)"/>
      </g>
    </g>
    <g id="Group_16" data-name="Group 16" transform="translate(10.413 33.472)">
      <g id="Group_15" data-name="Group 15">
        <path id="Path_11" data-name="Path 11" class="cls-2" d="M211.124,334.464h-6.5a1.038,1.038,0,1,0,0,2.076h6.5a1.038,1.038,0,0,0,0-2.076Z" transform="translate(-203.582 -334.464)"/>
      </g>
    </g>
  </g>
</svg>
