<svg xmlns="http://www.w3.org/2000/svg" viewBox="0 0 29.441 28.494">
  <defs>
    <style>
      .cls-1 {
        opacity: 0.7;
      }

      .cls-2 {
        fill: #323b61;
      }
    </style>
  </defs>
  <g id="piggy-bank" class="cls-1" transform="translate(0.001 -0.001)">
    <g id="Group_2" data-name="Group 2" transform="translate(0 5.064)">
      <g id="Group_1" data-name="Group 1">
        <path id="Path_2" data-name="Path 2" class="cls-2" d="M28.432,98.655a.883.883,0,0,0-1.22,0,.816.816,0,0,0,0,1.18,1.632,1.632,0,0,1,.505,1.18,1.752,1.752,0,0,1-1.783,1.669H25.9c0-.009,0-.018,0-.027a8.827,8.827,0,0,0-3.151-5.9,10.287,10.287,0,0,0-5.436-2.349c0-.025,0-.049,0-.074a3.452,3.452,0,0,0-6.9,0c0,.013,0,.025,0,.038a9.745,9.745,0,0,0-1.548.261A6.037,6.037,0,0,0,4.37,92.669a.844.844,0,0,0-.851.972l.654,3.8a8.949,8.949,0,0,0-2.045,3.617A2.533,2.533,0,0,0,0,103.52v1.669a2.552,2.552,0,0,0,2.537,2.5h.281A9.292,9.292,0,0,0,5.233,110.6v2.989a.849.849,0,0,0,.863.835h3.45a.849.849,0,0,0,.863-.835v-.89h5.175v.89a.849.849,0,0,0,.863.835H19.9a.849.849,0,0,0,.863-.835V111.7a9.185,9.185,0,0,0,5.134-7.346h.041a3.578,3.578,0,0,0,2.459-.969,3.232,3.232,0,0,0,.038-4.731ZM13.859,92.669a1.67,1.67,0,1,1-1.725,1.669A1.7,1.7,0,0,1,13.859,92.669Zm5.693,17.74a.834.834,0,0,0-.517.765v1.585H17.309V110.2a.863.863,0,0,0-1.725,0v.835H10.408v-1a.863.863,0,0,0-1.725,0v2.727H6.958V110.2a.826.826,0,0,0-.345-.667,7.6,7.6,0,0,1-2.46-3.005.864.864,0,0,0-.789-.5H2.588a.85.85,0,0,1-.863-.835V103.52a.85.85,0,0,1,.862-.835h.23a.856.856,0,0,0,.845-.669,7.3,7.3,0,0,1,2.046-3.722.818.818,0,0,0,.237-.723L5.41,94.462a4.322,4.322,0,0,1,2.443,1.624.879.879,0,0,0,.97.3,7.965,7.965,0,0,1,2.056-.37,3.506,3.506,0,0,0,5.947.022,7.807,7.807,0,0,1,7.35,6.771A7.5,7.5,0,0,1,19.551,110.408Z" transform="translate(0 -90.999)"/>
      </g>
    </g>
    <g id="Group_4" data-name="Group 4" transform="translate(5.233 15.081)">
      <g id="Group_3" data-name="Group 3">
        <ellipse id="Ellipse_3" data-name="Ellipse 3" class="cls-2" cx="0.863" cy="0.835" rx="0.863" ry="0.835"/>
      </g>
    </g>
    <g id="Group_6" data-name="Group 6" transform="translate(10.408 13.412)">
      <g id="Group_5" data-name="Group 5">
        <path id="Path_3" data-name="Path 3" class="cls-2" d="M187.038,241h-5.175a.835.835,0,1,0,0,1.669h5.175a.835.835,0,1,0,0-1.669Z" transform="translate(-181 -241)"/>
      </g>
    </g>
    <g id="Group_8" data-name="Group 8" transform="translate(17.309)">
      <g id="Group_7" data-name="Group 7">
        <path id="Path_4" data-name="Path 4" class="cls-2" d="M304.45,0A3.4,3.4,0,0,0,301,3.339a3.452,3.452,0,0,0,6.9,0A3.4,3.4,0,0,0,304.45,0Zm0,5.008a1.7,1.7,0,0,1-1.725-1.669,1.726,1.726,0,0,1,3.45,0A1.7,1.7,0,0,1,304.45,5.008Z" transform="translate(-301)"/>
      </g>
    </g>
  </g>
</svg>
