<svg xmlns="http://www.w3.org/2000/svg" viewBox="0 0 28.426 17.766">
  <defs>
    <style>
      .cls-2 {
        fill: #fff;
      }
    </style>
  </defs>
  <g id="cloud-internet-symbol" class="cls-1" transform="translate(0 -96)">
    <path id="Path_5" data-name="Path 5" class="cls-2" d="M17.766,97.777a5.336,5.336,0,0,1,5.33,5.264c-.014.108-.024.215-.028.326l-.045,1.3,1.235.43A3.54,3.54,0,0,1,23.1,111.99H5.33a3.553,3.553,0,0,1-.056-7.106c.083.012.17.023.257.028l1.35.089.444-1.275a3.447,3.447,0,0,1,3.956-2.328l1.244.224.619-1.1a5.329,5.329,0,0,1,4.622-2.741m0-1.777a7.078,7.078,0,0,0-6.171,3.647,5.225,5.225,0,0,0-5.948,3.491c-.106-.007-.208-.031-.318-.031a5.33,5.33,0,1,0,0,10.66H23.1a5.317,5.317,0,0,0,1.745-10.344c0-.108.031-.208.031-.316A7.107,7.107,0,0,0,17.766,96Z" transform="translate(0 0)"/>
  </g>
</svg>
