<svg xmlns="http://www.w3.org/2000/svg" viewBox="0 0 20 19.54">
  <defs>
    <style>
      .cls-1 {
        fill: #fff;
      }
    </style>
  </defs>
  <g id="speech-bubble" transform="translate(0 -4.257)">
    <path id="Path_7" data-name="Path 7" class="cls-1" d="M17.018,6.616A11.153,11.153,0,0,0,10,4.257,11.153,11.153,0,0,0,2.982,6.616,7.514,7.514,0,0,0,0,12.473a7.513,7.513,0,0,0,2.982,5.857A11.153,11.153,0,0,0,10,20.69c.269,0,.541-.009.811-.027l1.7,2.809a.676.676,0,0,0,.562.325h.016a.676.676,0,0,0,.561-.3l3.606-5.369A7.461,7.461,0,0,0,20,12.473,7.513,7.513,0,0,0,17.018,6.616ZM16.266,17.2l-3.145,4.667L11.749,19.6a.676.676,0,0,0-.578-.325q-.034,0-.068,0a10.992,10.992,0,0,1-1.1.056c-4.769,0-8.649-3.08-8.649-6.865S5.231,5.608,10,5.608s8.649,3.08,8.649,6.865A6.168,6.168,0,0,1,16.266,17.2Z" transform="translate(0)"/>
  </g>
</svg>
