<svg xmlns="http://www.w3.org/2000/svg" viewBox="0 0 23.382 25.633">
  <defs>
    <style>
      .cls-1, .cls-2 {
        fill: #fff;
      }

      .cls-2 {
        stroke: #1a5370;
        stroke-width: 2px;
      }

      .cls-3 {
        stroke: none;
      }

      .cls-4 {
        fill: none;
      }
    </style>
  </defs>
  <g id="Notification" transform="translate(-1395 -20)">
    <path id="Notification_Icon" data-name="Notification Icon" class="cls-1" d="M6.752,15.755h4.5a2.25,2.25,0,0,1-4.5,0ZM1.125,14.63a1.125,1.125,0,0,1,0-2.25h.563A4.9,4.9,0,0,0,3.376,9V5.627A5.573,5.573,0,0,1,9,0a5.572,5.572,0,0,1,5.626,5.627V9a4.9,4.9,0,0,0,1.688,3.377h.563a1.125,1.125,0,1,1,0,2.25Z" transform="translate(1395 27.627)"/>
    <g id="Notification_Badge" data-name="Notification Badge" class="cls-2" transform="translate(1407.379 22)">
      <circle class="cls-3" cx="4.501" cy="4.501" r="4.501"/>
      <circle class="cls-4" cx="4.501" cy="4.501" r="5.501"/>
    </g>
  </g>
</svg>
