<svg xmlns="http://www.w3.org/2000/svg" viewBox="0 0 5.84 8.03">
  <defs>
    <style>
      .cls-1 {
        fill: #abafc0;
      }
    </style>
  </defs>
  <g id="Group_18" data-name="Group 18" transform="translate(0.001)">
    <path id="Path_263" data-name="Path 263" class="cls-1" d="M55.183,3.285h5.11a.363.363,0,0,0,.257-.622L57.995.108a.358.358,0,0,0-.513,0L54.926,2.663a.365.365,0,0,0,.257.622Z" transform="translate(-54.818)"/>
    <path id="Path_264" data-name="Path 264" class="cls-1" d="M60.293,237.549h-5.11a.363.363,0,0,0-.257.622l2.555,2.555a.358.358,0,0,0,.513,0l2.555-2.555a.365.365,0,0,0-.257-.622Z" transform="translate(-54.818 -232.804)"/>
  </g>
</svg>
