<svg xmlns="http://www.w3.org/2000/svg" viewBox="0 0 23.662 23.666">
  <defs>
    <style>
      .cls-1 {
        fill: #323b61;
      }
    </style>
  </defs>
  <path id="Subtraction_1" data-name="Subtraction 1" class="cls-1" d="M15813.874,17092.643h-2.09a1.462,1.462,0,0,1-1.441-1.223l-.278-1.66a9.6,9.6,0,0,1-1.562-.643l-1.386.99a1.462,1.462,0,0,1-1.879-.158l-1.476-1.477a1.448,1.448,0,0,1-.158-1.883l.974-1.355a9.339,9.339,0,0,1-.678-1.6l-1.678-.289a1.461,1.461,0,0,1-1.223-1.441v-2.084a1.464,1.464,0,0,1,1.223-1.441l1.639-.279a9.13,9.13,0,0,1,.656-1.613l-.986-1.389a1.455,1.455,0,0,1,.158-1.883l1.476-1.477a1.468,1.468,0,0,1,1.884-.158l1.359.982a8.977,8.977,0,0,1,1.609-.678l.287-1.682a1.455,1.455,0,0,1,1.441-1.223h2.08a1.465,1.465,0,0,1,1.446,1.223l.278,1.643a9.268,9.268,0,0,1,1.669.686l1.372-.977a1.422,1.422,0,0,1,.846-.275,1.437,1.437,0,0,1,1.033.434l1.476,1.471a1.461,1.461,0,0,1,.159,1.885l-.982,1.367a8.994,8.994,0,0,1,.669,1.613l1.66.283a1.428,1.428,0,0,1,1.21,1.441v2.08a1.451,1.451,0,0,1-1.219,1.441l-1.659.279a9.853,9.853,0,0,1-.67,1.613l.979,1.371a1.456,1.456,0,0,1-.159,1.885l-1.471,1.471a1.449,1.449,0,0,1-1.884.158l-1.368-.979a9.41,9.41,0,0,1-1.613.67l-.283,1.66A1.454,1.454,0,0,1,15813.874,17092.643Zm-1.039-16.939a5.106,5.106,0,1,0,5.105,5.1A5.112,5.112,0,0,0,15812.835,17075.7Zm0,8.875a3.771,3.771,0,1,1,3.771-3.771A3.778,3.778,0,0,1,15812.835,17084.578Z" transform="translate(-15801 -17068.977)"/>
</svg>
