<svg xmlns="http://www.w3.org/2000/svg" xmlns:xlink="http://www.w3.org/1999/xlink" viewBox="0 0 1383.197 995.148">
  <defs>
    <style>
      .cls-1 {
        fill: url(#linear-gradient);
      }
    </style>
    <linearGradient id="linear-gradient" x1="0.988" x2="-0.23" y2="1.295" gradientUnits="objectBoundingBox">
      <stop offset="0" stop-color="#f3f3f3"/>
      <stop offset="1" stop-color="#fff"/>
    </linearGradient>
  </defs>
  <g id="Group_370" data-name="Group 370" transform="translate(20.494 -1168.555)">
    <g id="bg" transform="translate(0 -4)">
      <path id="Union_10" data-name="Union 10" class="cls-1" d="M0,987.29,19.11,832.631l.462-614.048S44,211.142,96.818,203.722l1.488-12.044,49.294,6.015c65.109-6.452,156.522-11.028,277.572-7.435,284.83,8.454,378.052-17.152,504.8-103.706S1313.6,0,1313.6,0V339.961l69.594,8.491-74.8,601.264s-123.91,18.066-405.688-23.944-377.117-30.537-512.429,31.045c-67.308,30.632-164.217,38.329-244.629,38.329A1339.65,1339.65,0,0,1,0,987.29Z" transform="translate(-20.494 1172.556)"/>
    </g>
  </g>
</svg>
