<svg xmlns="http://www.w3.org/2000/svg" xmlns:xlink="http://www.w3.org/1999/xlink" viewBox="0 0 1280 1156">
  <defs>
    <style>
      .cls-1 {
        fill: #fff;
        stroke: #707070;
        opacity: 0.4;
      }

      .cls-2 {
        clip-path: url(#clip-path);
      }

      .cls-3, .cls-4 {
        fill: url(#linear-gradient);
      }

      .cls-4, .cls-5 {
        opacity: 0.7;
      }

      .cls-5 {
        fill: url(#linear-gradient-3);
      }
    </style>
    <clipPath id="clip-path">
      <rect id="Rectangle_1578" data-name="Rectangle 1578" class="cls-1" width="1280" height="1156" transform="translate(0 3270)"/>
    </clipPath>
    <linearGradient id="linear-gradient" x1="0.5" x2="0.5" y2="1" gradientUnits="objectBoundingBox">
      <stop offset="0" stop-color="#1a5471"/>
      <stop offset="1" stop-color="#20343e"/>
    </linearGradient>
    <linearGradient id="linear-gradient-3" x1="0.793" y1="-0.008" xlink:href="#linear-gradient"/>
  </defs>
  <g id="bg" class="cls-2" transform="translate(0 -3270)">
    <g id="bg-2" data-name="bg" transform="translate(-182.975 2351.527) rotate(6)">
      <path id="Path_3987" data-name="Path 3987" class="cls-3" d="M94-65.513s71.4-111.627,823.865-80.232S1708.776-219,1708.776-219L1823.031,868.059l-1276.855,134.2L94-41.095Z" transform="translate(-144.716 1041.757)"/>
      <path id="Path_3988" data-name="Path 3988" class="cls-4" d="M0,56.879s66.041-108.7,880.673-25.56S1726.49,10.614,1726.49,10.614L1546.236,1171.175,272.889,1082.134,2.4,81.72Z" transform="matrix(0.985, -0.174, 0.174, 0.985, -55.195, 1025.712)"/>
      <path id="Path_3989" data-name="Path 3989" class="cls-5" d="M6.447,444.049S111.788,220.525,903.026,213.755,1762.747,0,1762.747,0L1947.57,977.224,697.407,1265.847,0,491.537Z" transform="translate(-149.349 601.208) rotate(7)"/>
    </g>
  </g>
</svg>
