<svg xmlns="http://www.w3.org/2000/svg" viewBox="0 0 20 20">
  <defs>
    <style>
      .cls-1 {
        fill: #93b0bf;
      }
    </style>
  </defs>
  <g id="piggy-bank" transform="translate(0)">
    <g id="Group_2" data-name="Group 2" transform="translate(0 3.555)">
      <g id="Group_1" data-name="Group 1">
        <path id="Path_2" data-name="Path 2" class="cls-1" d="M19.314,96.373a.586.586,0,0,0-.829.829,1.164,1.164,0,0,1,.343.829A1.208,1.208,0,0,1,17.617,99.2h-.026l0-.019a6.26,6.26,0,0,0-2.14-4.14,6.877,6.877,0,0,0-3.693-1.649c0-.017,0-.035,0-.052a2.344,2.344,0,0,0-4.687,0c0,.009,0,.018,0,.027a6.425,6.425,0,0,0-1.052.183,4.042,4.042,0,0,0-3.051-1.382.586.586,0,0,0-.578.682l.444,2.666a6.339,6.339,0,0,0-1.389,2.539A1.761,1.761,0,0,0,0,99.788v1.172a1.762,1.762,0,0,0,1.723,1.758h.191a6.479,6.479,0,0,0,1.641,2.042v2.1a.586.586,0,0,0,.586.586H6.484a.586.586,0,0,0,.586-.586v-.625h3.516v.625a.586.586,0,0,0,.586.586h2.344a.586.586,0,0,0,.586-.586v-1.328a6.446,6.446,0,0,0,3.488-5.157h.028a2.389,2.389,0,0,0,1.671-.68A2.3,2.3,0,0,0,20,98.03,2.328,2.328,0,0,0,19.314,96.373Zm-9.9-4.2a1.172,1.172,0,1,1-1.172,1.172A1.173,1.173,0,0,1,9.414,92.171Zm3.867,12.452a.586.586,0,0,0-.351.537v1.113H11.758v-1.8a.586.586,0,1,0-1.172,0v.586H7.07v-.7a.586.586,0,0,0-1.172,0v1.914H4.727v-1.8a.586.586,0,0,0-.234-.469,5.3,5.3,0,0,1-1.671-2.11.586.586,0,0,0-.536-.351H1.758a.587.587,0,0,1-.586-.586V99.788a.587.587,0,0,1,.586-.586h.156a.586.586,0,0,0,.574-.469,5.178,5.178,0,0,1,1.39-2.613.586.586,0,0,0,.161-.508L3.675,93.43a2.932,2.932,0,0,1,1.659,1.14.586.586,0,0,0,.659.212,5.254,5.254,0,0,1,1.4-.26,2.342,2.342,0,0,0,4.039.015,5.378,5.378,0,0,1,4.993,4.753A5.282,5.282,0,0,1,13.281,104.623Z" transform="translate(0 -90.999)"/>
      </g>
    </g>
    <g id="Group_4" data-name="Group 4" transform="translate(3.555 10.586)">
      <g id="Group_3" data-name="Group 3">
        <circle id="Ellipse_3" data-name="Ellipse 3" class="cls-1" cx="0.586" cy="0.586" r="0.586"/>
      </g>
    </g>
    <g id="Group_6" data-name="Group 6" transform="translate(7.07 9.414)">
      <g id="Group_5" data-name="Group 5">
        <path id="Path_3" data-name="Path 3" class="cls-1" d="M185.1,241h-3.516a.586.586,0,1,0,0,1.172H185.1a.586.586,0,1,0,0-1.172Z" transform="translate(-181 -241)"/>
      </g>
    </g>
    <g id="Group_8" data-name="Group 8" transform="translate(11.758)">
      <g id="Group_7" data-name="Group 7">
        <path id="Path_4" data-name="Path 4" class="cls-1" d="M303.344,0a2.344,2.344,0,1,0,2.344,2.344A2.346,2.346,0,0,0,303.344,0Zm0,3.516a1.172,1.172,0,1,1,1.172-1.172A1.173,1.173,0,0,1,303.344,3.516Z" transform="translate(-301)"/>
      </g>
    </g>
  </g>
</svg>
