<svg xmlns="http://www.w3.org/2000/svg" viewBox="0 0 20 12.5">
  <defs>
    <style>
      .cls-1 {
        fill: #fff;
      }
    </style>
  </defs>
  <g id="cloud-internet-symbol" transform="translate(0 -96)">
    <path id="Path_5" data-name="Path 5" class="cls-1" d="M12.5,97.25a3.754,3.754,0,0,1,3.75,3.7c-.01.076-.017.151-.02.229l-.032.918.869.3a2.491,2.491,0,0,1-.818,4.846H3.75a2.5,2.5,0,0,1-.039-5c.059.009.12.016.181.02l.95.062.312-.9A2.425,2.425,0,0,1,7.937,99.8l.875.157.436-.775A3.749,3.749,0,0,1,12.5,97.25m0-1.25a4.98,4.98,0,0,0-4.342,2.566,3.676,3.676,0,0,0-4.185,2.456c-.074,0-.146-.022-.223-.022a3.75,3.75,0,1,0,0,7.5h12.5a3.741,3.741,0,0,0,1.228-7.278c0-.076.022-.146.022-.222a5,5,0,0,0-5-5Z" transform="translate(0 0)"/>
  </g>
</svg>
