<svg xmlns="http://www.w3.org/2000/svg" viewBox="0 0 23.394 26.736">
  <defs>
    <style>
      .cls-1 {
        fill: #e4e7e7;
      }

      .cls-2 {
        fill: #c2c5c7;
      }

      .cls-3 {
        fill: #ccd0d2;
      }
    </style>
  </defs>
  <g id="text" transform="translate(-19.329 0)">
    <path id="Path_330" data-name="Path 330" class="cls-1" d="M21,0H35.2l7.525,7.5V25.065a1.671,1.671,0,0,1-1.671,1.671H21a1.671,1.671,0,0,1-1.671-1.671V1.671A1.671,1.671,0,0,1,21,0Z"/>
    <path id="Path_331" data-name="Path 331" class="cls-2" d="M210.452,7.7h-5.824a1.672,1.672,0,0,1-1.671-1.671V.193Z" transform="translate(-167.753 -0.176)"/>
    <path id="Path_332" data-name="Path 332" class="cls-3" d="M57.988,55.007v1.671H74.7V55.007Zm0,5.014H74.7V58.35H57.988Zm0,3.341H74.7V61.691H57.988Zm0,3.342H74.7v-1.67H57.988Zm9.19-15.039h-9.19v1.671h9.191V51.665Zm0-3.342h-9.19v1.671h9.191V48.323Z" transform="translate(-35.317 -44.146)"/>
  </g>
</svg>
