<svg xmlns="http://www.w3.org/2000/svg" viewBox="0 0 14.059 14.039">
  <defs>
    <style>
      .cls-1 {
        fill: #abafc0;
      }
    </style>
  </defs>
  <g id="filter-tool-black-shape" transform="translate(0 -0.291)">
    <path id="Path_261" data-name="Path 261" class="cls-1" d="M14,.68A.6.6,0,0,0,13.41.291H.648A.6.6,0,0,0,.06.68a.576.576,0,0,0,.14.7L5.115,6.293v4.846a.614.614,0,0,0,.189.449L7.857,14.14a.593.593,0,0,0,.449.19.694.694,0,0,0,.249-.05.6.6,0,0,0,.389-.588v-7.4l4.915-4.915A.575.575,0,0,0,14,.68Z"/>
  </g>
</svg>
