<svg xmlns="http://www.w3.org/2000/svg" viewBox="0 0 24.52 24.521">
  <defs>
    <style>
      .cls-1 {
        fill: #fff;
      }
    </style>
  </defs>
  <path id="wrench" class="cls-1" d="M23.393,17.887,15.866,10.36l1.006-3.755a.8.8,0,0,0-.208-.776L11.07.235a.8.8,0,0,0-.776-.208l-4.2,1.126A.8.8,0,0,0,5.732,2.5l4.2,4.2L9.254,9.244l-2.543.681-4.2-4.2a.8.8,0,0,0-1.343.36l-1.126,4.2a.8.8,0,0,0,.208.776l5.594,5.594a.8.8,0,0,0,.776.208l3.755-1.006L17.9,23.383a3.86,3.86,0,0,0,2.747,1.138h0a3.886,3.886,0,0,0,2.748-6.634Zm-1.136,4.36a2.264,2.264,0,0,1-1.612.668h0a2.265,2.265,0,0,1-1.612-.668l-7.854-7.855a.8.8,0,0,0-.776-.208L6.647,15.191,1.709,10.252l.646-2.411L5.9,11.388a.8.8,0,0,0,.776.208l3.438-.921a.8.8,0,0,0,.568-.568l.921-3.439a.8.8,0,0,0-.208-.776L7.851,2.345,10.262,1.7,15.2,6.637l-1.006,3.755a.8.8,0,0,0,.208.776l7.855,7.854A2.283,2.283,0,0,1,22.257,22.247Z" transform="translate(-0.01 0)"/>
</svg>
