<svg xmlns="http://www.w3.org/2000/svg" viewBox="0 0 25.098 24.52">
  <defs>
    <style>
      .cls-1 {
        opacity: 0.7;
      }

      .cls-2 {
        fill: #323b61;
      }
    </style>
  </defs>
  <g id="speech-bubble" class="cls-1" transform="translate(0 -4.257)">
    <path id="Path_7" data-name="Path 7" class="cls-2" d="M21.356,7.217a14,14,0,0,0-8.807-2.96,14,14,0,0,0-8.807,2.96A9.429,9.429,0,0,0,0,14.568a9.429,9.429,0,0,0,3.742,7.35,14,14,0,0,0,8.807,2.96c.338,0,.678-.011,1.017-.034L15.7,28.369a.849.849,0,0,0,.705.408h.02a.848.848,0,0,0,.7-.375l4.525-6.738a9.362,9.362,0,0,0,3.44-7.1A9.429,9.429,0,0,0,21.356,7.217ZM20.412,20.5l-3.947,5.856-1.721-2.838a.848.848,0,0,0-.725-.408q-.043,0-.086,0a13.794,13.794,0,0,1-1.385.07C6.564,23.182,1.7,19.318,1.7,14.567S6.564,5.953,12.549,5.953,23.4,9.817,23.4,14.567A7.74,7.74,0,0,1,20.412,20.5Z" transform="translate(0)"/>
  </g>
</svg>
