<svg xmlns="http://www.w3.org/2000/svg" viewBox="0 0 23.77 23.297">
  <defs>
    <style>
      .cls-1 {
        fill: #323b61;
        opacity: 0.7;
      }
    </style>
  </defs>
  <path id="paste" class="cls-1" d="M23.765,8.907c0-.007,0-.015,0-.022s-.006-.043-.01-.064-.006-.021-.008-.032-.008-.035-.013-.052-.007-.019-.01-.028-.012-.036-.02-.053l-.007-.015a.881.881,0,0,0-.182-.266l-6.1-6.1a.879.879,0,0,0-.622-.258H4.32a.879.879,0,0,0-.879.879V17.063H.879A.879.879,0,0,0,0,17.942v3.44a3.78,3.78,0,0,0,3.6,3.93H20.169a3.78,3.78,0,0,0,3.6-3.93V9C23.769,8.966,23.768,8.936,23.765,8.907Zm-6.1-3.889,3.1,3.1h-3.1ZM1.758,21.383V18.822h14.81v2.561a4.165,4.165,0,0,0,.6,2.171H3.6A2.03,2.03,0,0,1,1.758,21.383Zm18.41,2.171a2.03,2.03,0,0,1-1.842-2.171V17.942a.879.879,0,0,0-.879-.879H5.2V3.774H15.911V9a.879.879,0,0,0,.879.879h5.221V21.383A2.03,2.03,0,0,1,20.169,23.554Z" transform="translate(0 -2.016)"/>
</svg>
