<svg xmlns="http://www.w3.org/2000/svg" viewBox="0 0 18 17.643">
  <defs>
    <style>
      .cls-1 {
        fill: #93b0bf;
      }
    </style>
  </defs>
  <path id="paste" class="cls-1" d="M18,7.235c0-.006,0-.011,0-.017s0-.033-.007-.049,0-.016-.006-.024-.006-.026-.01-.039-.005-.014-.008-.021-.009-.027-.015-.04l-.005-.011a.667.667,0,0,0-.138-.2l-4.619-4.62a.666.666,0,0,0-.471-.2H3.271a.666.666,0,0,0-.666.666V13.411H.666A.666.666,0,0,0,0,14.077v2.605a2.863,2.863,0,0,0,2.727,2.976H15.273A2.863,2.863,0,0,0,18,16.682V7.3C18,7.279,18,7.257,18,7.235ZM13.381,4.289l2.347,2.347H13.381ZM1.332,16.682v-1.94H12.546v1.94A3.154,3.154,0,0,0,13,18.326H2.727A1.537,1.537,0,0,1,1.332,16.682Zm13.942,1.644a1.537,1.537,0,0,1-1.4-1.644V14.077a.666.666,0,0,0-.666-.666H3.937V3.348h8.112V7.3a.666.666,0,0,0,.666.666h3.954v8.714A1.537,1.537,0,0,1,15.273,18.326Z" transform="translate(0 -2.016)"/>
</svg>
