<svg id="icon" xmlns="http://www.w3.org/2000/svg" viewBox="0 0 15.059 15.059">
  <defs>
    <style>
      .cls-1 {
        fill: #839269;
      }
    </style>
  </defs>
  <path id="Path_329" data-name="Path 329" class="cls-1" d="M7.529,0a7.529,7.529,0,1,0,7.53,7.529A7.529,7.529,0,0,0,7.529,0ZM9.1,11.669q-.581.229-.927.349a2.447,2.447,0,0,1-.8.12A1.6,1.6,0,0,1,6.27,11.8a1.109,1.109,0,0,1-.389-.871,3.165,3.165,0,0,1,.029-.42c.02-.143.051-.3.094-.484l.485-1.713c.043-.164.08-.321.109-.466a2.066,2.066,0,0,0,.043-.4.621.621,0,0,0-.135-.457.768.768,0,0,0-.518-.128,1.36,1.36,0,0,0-.386.057c-.131.04-.244.076-.337.112l.128-.528q.476-.194.911-.332a2.693,2.693,0,0,1,.822-.139A1.573,1.573,0,0,1,8.2,6.361a1.122,1.122,0,0,1,.379.877q0,.112-.026.393a2.632,2.632,0,0,1-.1.517L7.978,9.856c-.04.137-.075.294-.106.469a2.481,2.481,0,0,0-.047.4.573.573,0,0,0,.152.464.853.853,0,0,0,.527.124,1.529,1.529,0,0,0,.4-.062,2.269,2.269,0,0,0,.323-.108ZM9.011,4.735a1.152,1.152,0,0,1-.813.314,1.164,1.164,0,0,1-.816-.314,1,1,0,0,1-.34-.76,1.011,1.011,0,0,1,.34-.762A1.155,1.155,0,0,1,8.2,2.9a1.142,1.142,0,0,1,.813.317,1.027,1.027,0,0,1,0,1.523Z"/>
</svg>
